<svg width="40" height="40" viewBox="0 0 40 40" fill="none" xmlns="http://www.w3.org/2000/svg">
<path fill-rule="evenodd" clip-rule="evenodd" d="M34.5833 11.6666C34.5833 11.9981 34.4516 12.3161 34.2172 12.5505C33.9828 12.7849 33.6649 12.9166 33.3333 12.9166H6.66667C6.33515 12.9166 6.01721 12.7849 5.78279 12.5505C5.54837 12.3161 5.41667 11.9981 5.41667 11.6666C5.41667 11.3351 5.54837 11.0172 5.78279 10.7827C6.01721 10.5483 6.33515 10.4166 6.66667 10.4166H33.3333C33.6649 10.4166 33.9828 10.5483 34.2172 10.7827C34.4516 11.0172 34.5833 11.3351 34.5833 11.6666ZM34.5833 20C34.5833 20.3315 34.4516 20.6494 34.2172 20.8838C33.9828 21.1183 33.6649 21.25 33.3333 21.25H6.66667C6.33515 21.25 6.01721 21.1183 5.78279 20.8838C5.54837 20.6494 5.41667 20.3315 5.41667 20C5.41667 19.6684 5.54837 19.3505 5.78279 19.1161C6.01721 18.8817 6.33515 18.75 6.66667 18.75H33.3333C33.6649 18.75 33.9828 18.8817 34.2172 19.1161C34.4516 19.3505 34.5833 19.6684 34.5833 20ZM34.5833 28.3333C34.5833 28.6648 34.4516 28.9828 34.2172 29.2172C33.9828 29.4516 33.6649 29.5833 33.3333 29.5833H6.66667C6.33515 29.5833 6.01721 29.4516 5.78279 29.2172C5.54837 28.9828 5.41667 28.6648 5.41667 28.3333C5.41667 28.0018 5.54837 27.6838 5.78279 27.4494C6.01721 27.215 6.33515 27.0833 6.66667 27.0833H33.3333C33.6649 27.0833 33.9828 27.215 34.2172 27.4494C34.4516 27.6838 34.5833 28.0018 34.5833 28.3333Z" fill="#29974E"/>
</svg>
