<svg width="40" height="40" viewBox="0 0 40 40" fill="none" xmlns="http://www.w3.org/2000/svg">
<path d="M30.5 9.51667C30.3458 9.36217 30.1627 9.23959 29.961 9.15595C29.7594 9.07232 29.5433 9.02927 29.325 9.02927C29.1067 9.02927 28.8906 9.07232 28.689 9.15595C28.4873 9.23959 28.3042 9.36217 28.15 9.51667L20 17.65L11.85 9.50001C11.6957 9.3457 11.5125 9.2233 11.3109 9.13979C11.1093 9.05629 10.8932 9.01331 10.675 9.01331C10.4568 9.01331 10.2407 9.05629 10.0391 9.13979C9.83749 9.2233 9.65431 9.3457 9.50001 9.50001C9.3457 9.65431 9.2233 9.83749 9.13979 10.0391C9.05629 10.2407 9.01331 10.4568 9.01331 10.675C9.01331 10.8932 9.05629 11.1093 9.13979 11.3109C9.2233 11.5125 9.3457 11.6957 9.50001 11.85L17.65 20L9.50001 28.15C9.3457 28.3043 9.2233 28.4875 9.13979 28.6891C9.05629 28.8907 9.01331 29.1068 9.01331 29.325C9.01331 29.5432 9.05629 29.7593 9.13979 29.9609C9.2233 30.1625 9.3457 30.3457 9.50001 30.5C9.65431 30.6543 9.83749 30.7767 10.0391 30.8602C10.2407 30.9437 10.4568 30.9867 10.675 30.9867C10.8932 30.9867 11.1093 30.9437 11.3109 30.8602C11.5125 30.7767 11.6957 30.6543 11.85 30.5L20 22.35L28.15 30.5C28.3043 30.6543 28.4875 30.7767 28.6891 30.8602C28.8907 30.9437 29.1068 30.9867 29.325 30.9867C29.5432 30.9867 29.7593 30.9437 29.9609 30.8602C30.1625 30.7767 30.3457 30.6543 30.5 30.5C30.6543 30.3457 30.7767 30.1625 30.8602 29.9609C30.9437 29.7593 30.9867 29.5432 30.9867 29.325C30.9867 29.1068 30.9437 28.8907 30.8602 28.6891C30.7767 28.4875 30.6543 28.3043 30.5 28.15L22.35 20L30.5 11.85C31.1333 11.2167 31.1333 10.15 30.5 9.51667Z" fill="#29974E"/>
</svg>
