<svg width="25" height="24" viewBox="0 0 25 24" fill="none" xmlns="http://www.w3.org/2000/svg">
<path d="M12.4999 12.5752C12.3666 12.5752 12.2416 12.5545 12.1249 12.5132C12.0082 12.4718 11.8999 12.4008 11.7999 12.3002L7.19991 7.70016C7.01658 7.51682 6.92058 7.28749 6.91192 7.01216C6.90325 6.73683 6.99925 6.49949 7.19991 6.30016C7.38325 6.11683 7.61658 6.02516 7.89992 6.02516C8.18325 6.02516 8.41658 6.11683 8.59992 6.30016L12.4999 10.1752L16.3999 6.30016C16.5832 6.11683 16.8126 6.02116 17.0879 6.01316C17.3632 6.00516 17.6006 6.10083 17.7999 6.30016C17.9832 6.48349 18.0749 6.71683 18.0749 7.00016C18.0749 7.28349 17.9832 7.51682 17.7999 7.70016L13.1999 12.3002C13.0999 12.4002 12.9916 12.4712 12.8749 12.5132C12.7582 12.5552 12.6332 12.5758 12.4999 12.5752ZM12.4999 18.5752C12.3666 18.5752 12.2416 18.5545 12.1249 18.5132C12.0082 18.4718 11.8999 18.4008 11.7999 18.3002L7.19991 13.7002C7.01658 13.5168 6.92058 13.2878 6.91192 13.0132C6.90325 12.7385 6.99925 12.5008 7.19991 12.3002C7.38325 12.1168 7.61658 12.0252 7.89992 12.0252C8.18325 12.0252 8.41658 12.1168 8.59992 12.3002L12.4999 16.1752L16.3999 12.3002C16.5832 12.1168 16.8126 12.0208 17.0879 12.0122C17.3632 12.0035 17.6006 12.0995 17.7999 12.3002C17.9832 12.4835 18.0749 12.7168 18.0749 13.0002C18.0749 13.2835 17.9832 13.5168 17.7999 13.7002L13.1999 18.3002C13.0999 18.4002 12.9916 18.4712 12.8749 18.5132C12.7582 18.5552 12.6332 18.5758 12.4999 18.5752Z" fill="#9C9C9C"/>
</svg>
