<svg width="150" height="150" viewBox="0 0 150 150" fill="none" xmlns="http://www.w3.org/2000/svg">
<path d="M75 0C33.5526 0 0 33.5526 0 75C0 116.447 33.6046 150 75 150C116.395 150 150 116.395 150 75C150 33.6046 116.395 0 75 0ZM15.9972 113.123H37.1884L38.0194 108.189H14.5429L50.277 68.5596L38.6946 135.145C29.5533 129.64 21.7625 122.057 15.9972 113.123ZM66.6378 37.3442L66.7936 39.5776H59.5741L59.7299 37.3442H66.6378ZM59.7819 36.8767L59.9377 35.0069H66.482L66.6378 36.8767H59.7819ZM67.2611 45.4986L67.4169 47.3684H59.0028L59.1586 45.4986H67.2611ZM67.4169 47.9917L67.5727 50.1212H58.7431L58.8989 47.9917H67.4169ZM68.0921 57.0291L68.2479 58.8989H58.0679L58.2237 57.0291H68.0921ZM68.2999 59.3144L68.4557 61.4439H57.912L58.0679 59.3144H68.2999ZM63.2098 68.7154C65.7029 68.7154 71.9875 84.7645 73.9093 95.464C74.3767 98.1648 75 102.787 75.5713 108.189H50.8483C51.4716 102.891 52.0429 98.2687 52.5623 95.464C54.4841 84.7645 60.7687 68.7154 63.2098 68.7154ZM77.1814 73.5457L74.6364 59.1066L119.512 108.189H105.54L77.1814 73.5457ZM103.566 108.189H83.3102L77.7528 76.714L103.566 108.189ZM50.7964 65.7029L25.2943 93.9578L51.7832 60.0935L50.7964 65.7029ZM52.3026 56.8213L23.892 93.1787L53.705 48.8227L52.3026 56.8213ZM89.5949 143.715L85.0762 118.161H76.6101C77.7528 129.38 78.7396 141.015 79.1032 145.118C77.7528 145.222 76.3504 145.222 75 145.222C65.2874 145.222 56.0422 143.248 47.6281 139.664C48.1475 134.055 49.1863 123.044 50.277 113.071H134.003C124.03 128.549 108.137 139.768 89.5949 143.715ZM136.911 108.189H121.641L74.169 56.25L72.403 46.1219L137.639 106.787C137.379 107.254 137.171 107.722 136.911 108.189ZM71.8837 43.5769L67.6246 19.3733C67.4169 18.3345 66.5339 17.5554 65.4432 17.5554H63.2098H60.9765C59.8857 17.5554 59.0028 18.3345 58.795 19.3733L54.3283 45.0831L12.5693 107.254C7.5831 97.5935 4.72645 86.6343 4.72645 75C4.72645 36.2015 36.2015 4.77839 74.9481 4.77839C113.695 4.77839 145.222 36.2015 145.222 75C145.222 85.8553 142.729 96.1911 138.314 105.384L71.8837 43.5769Z" fill="#4D6E59"/>
</svg>
