<svg width="412" height="445" viewBox="0 0 412 445" fill="none" xmlns="http://www.w3.org/2000/svg">
<path d="M0.0742188 442.457L8.83965 397.889L23.2841 429.988L37.852 397.889L45.6298 442.457H39.0866L34.889 417.395L22.7903 444.309L10.9384 417.395L6.61743 442.457H0.0742188Z" fill="#4D6E59"/>
<path d="M60.1981 400.975V442.457H53.7783V400.975H60.1981Z" fill="#4D6E59"/>
<path d="M100.568 410.605C96.1232 406.284 91.6787 406.037 89.333 406.037C80.3207 406.037 74.5182 412.704 74.5182 421.839C74.5182 430.728 80.5676 437.272 89.333 437.272C91.3084 437.272 95.8763 436.901 100.568 432.457V439.988C99.2096 440.852 95.3824 443.074 89.2096 443.074C85.6293 443.074 79.8269 442.333 74.5182 437.272C70.4442 433.444 67.8516 428.383 67.8516 421.593C67.8516 416.16 69.4565 410.111 74.5182 405.296C78.8392 401.099 83.7775 399.741 89.4565 399.741C94.7651 399.741 97.975 401.099 100.568 402.827V410.605Z" fill="#4D6E59"/>
<path d="M119.704 406.901V442.457H113.284V406.901H103.778V400.975H129.087V406.901H119.704Z" fill="#4D6E59"/>
<path d="M154.765 417.518L170.815 400.975H179.086L160.321 419.741L179.21 442.457H170.815L154.765 422.58V442.457H148.346V400.975H154.765V417.518Z" fill="#4D6E59"/>
<path d="M224.025 421.716C224.025 433.815 214.89 443.197 202.42 443.197C189.951 443.197 180.815 433.815 180.815 421.716C180.815 409.494 189.951 400.111 202.42 400.111C214.766 400.111 224.025 409.494 224.025 421.716ZM217.359 421.716C217.359 412.58 211.186 406.037 202.42 406.037C193.655 406.037 187.482 412.58 187.482 421.716C187.482 430.852 193.655 437.272 202.42 437.272C211.186 437.272 217.359 430.852 217.359 421.716Z" fill="#4D6E59"/>
<path d="M237.975 417.148H255.63V400.852H262.049V442.333H255.63V423.074H237.975V442.333H231.556V400.852H237.975V417.148Z" fill="#4D6E59"/>
<path d="M302.296 410.605C297.852 406.284 293.407 406.037 291.062 406.037C282.049 406.037 276.247 412.704 276.247 421.839C276.247 430.728 282.296 437.272 291.062 437.272C293.037 437.272 297.605 436.901 302.296 432.457V439.988C300.938 440.852 297.111 443.074 290.938 443.074C287.358 443.074 281.555 442.333 276.247 437.272C272.173 433.444 269.58 428.383 269.58 421.593C269.58 416.16 271.185 410.111 276.247 405.296C280.568 401.099 285.506 399.741 291.185 399.741C296.494 399.741 299.704 401.099 302.296 402.827V410.605Z" fill="#4D6E59"/>
<path d="M334.272 432.333H316.617L312.049 442.457H305.136L325.753 398.63L345.383 442.457H338.716L334.272 432.333ZM331.802 426.407L325.63 412.457L319.21 426.407H331.802Z" fill="#4D6E59"/>
<path d="M381.185 400.975V442.457H374.765V406.901H361.062V427.642C361.062 432.457 360.815 437.148 356.864 440.358C355.383 441.593 353.037 442.827 349.58 442.827C348.469 442.827 347.481 442.704 346.617 442.457V436.531C347.111 436.654 347.975 436.901 348.716 436.901C350.197 436.901 351.802 436.284 352.667 435.543C354.642 433.691 354.765 429 354.765 425.667V400.975H381.185Z" fill="#4D6E59"/>
<path d="M402.42 406.901V442.457H396V406.901H386.494V400.975H411.803V406.901H402.42Z" fill="#4D6E59"/>
<path d="M205.877 0.604935C107.359 0.604935 27.6055 80.358 27.6055 178.877C27.6055 277.395 107.482 357.148 205.877 357.148C304.272 357.148 384.149 277.272 384.149 178.877C384.149 80.4815 304.272 0.604935 205.877 0.604935ZM65.6302 269.494H116.001L117.976 257.765H62.1734L147.112 163.568L119.581 321.839C97.8524 308.753 79.3339 290.728 65.6302 269.494ZM186.001 89.3704L186.371 94.679H169.21L169.581 89.3704H186.001ZM169.704 88.2593L170.075 83.8148H185.63L186.001 88.2593H169.704ZM187.482 108.753L187.852 113.198H167.852L168.223 108.753H187.482ZM187.852 114.679L188.223 119.741H167.235L167.605 114.679H187.852ZM189.457 136.16L189.828 140.605H165.63L166.001 136.16H189.457ZM189.951 141.593L190.322 146.654H165.26L165.63 141.593H189.951ZM177.852 163.938C183.778 163.938 198.717 202.086 203.284 227.518C204.396 233.938 205.877 244.926 207.235 257.765H148.47C149.951 245.173 151.309 234.185 152.544 227.518C157.112 202.086 172.05 163.938 177.852 163.938ZM211.062 175.42L205.013 141.099L311.68 257.765H278.47L211.062 175.42ZM273.778 257.765H225.63L212.42 182.951L273.778 257.765ZM148.346 156.778L87.7289 223.938L150.692 143.444L148.346 156.778ZM151.926 135.667L84.3956 222.086L155.26 116.654L151.926 135.667ZM240.568 342.21L229.828 281.469H209.704C212.42 308.136 214.766 335.79 215.63 345.543C212.42 345.79 209.087 345.79 205.877 345.79C182.791 345.79 160.815 341.099 140.815 332.58C142.05 319.247 144.519 293.074 147.112 269.37H346.124C322.42 306.16 284.643 332.827 240.568 342.21ZM353.038 257.765H316.741L203.902 134.309L199.704 110.235L354.766 254.432C354.149 255.543 353.655 256.654 353.038 257.765ZM198.47 104.185L188.346 46.6543C187.852 44.1852 185.754 42.3333 183.161 42.3333H177.852H172.544C169.951 42.3333 167.852 44.1852 167.359 46.6543L156.741 107.765L57.482 255.543C45.6302 232.58 38.84 206.531 38.84 178.877C38.84 86.6543 113.655 11.963 205.754 11.963C297.852 11.963 372.791 86.6543 372.791 178.877C372.791 204.679 366.865 229.247 356.371 251.099L198.47 104.185Z" fill="#4D6E59"/>
</svg>
