<svg width="26" height="32" viewBox="0 0 26 32" fill="none" xmlns="http://www.w3.org/2000/svg">
<path d="M22.192 23.1912L15.122 30.2632C14.8434 30.542 14.5126 30.7631 14.1485 30.914C13.7844 31.0649 13.3942 31.1426 13 31.1426C12.6059 31.1426 12.2156 31.0649 11.8515 30.914C11.4874 30.7631 11.1566 30.542 10.878 30.2632L3.80804 23.1912C2.60079 21.9841 1.64313 20.551 0.989727 18.9738C0.336322 17.3966 -2.91798e-05 15.7061 -0.000122051 13.9989C-0.000214922 12.2917 0.335952 10.6012 0.989185 9.02391C1.64242 7.44663 2.59993 6.01345 3.80704 4.8062C5.01415 3.59896 6.44722 2.6413 8.02444 1.9879C9.60165 1.33449 11.2921 0.99814 12.9993 0.998047C14.7065 0.997954 16.397 1.33412 17.9743 1.98735C19.5516 2.64059 20.9848 3.59809 22.192 4.80521C23.3994 6.01239 24.3571 7.44558 25.0105 9.02292C25.6639 10.6003 26.0003 12.2909 26.0003 13.9982C26.0003 15.7055 25.6639 17.3961 25.0105 18.9735C24.3571 20.5508 23.3994 21.984 22.192 23.1912ZM20.072 6.92721C18.1964 5.05159 15.6526 3.99589 13 3.99589C10.3475 3.99589 7.80365 5.04959 5.92804 6.92521C4.05243 8.80082 2.99872 11.3447 2.99872 13.9972C2.99872 16.6497 4.05243 19.1936 5.92804 21.0692L13 28.1392L20.072 21.0712C21.0009 20.1426 21.7377 19.0401 22.2404 17.8266C22.7432 16.6132 23.0019 15.3126 23.0019 13.9992C23.0019 12.6858 22.7432 11.3852 22.2404 10.1718C21.7377 8.95833 21.0009 7.85583 20.072 6.92721ZM13 17.9992C12.4674 18.0112 11.9376 17.9168 11.442 17.7213C10.9463 17.5258 10.4947 17.2332 10.1137 16.8608C9.73265 16.4884 9.42986 16.0436 9.22309 15.5525C9.01632 15.0615 8.90974 14.534 8.90961 14.0012C8.90947 13.4684 9.01579 12.9409 9.22231 12.4498C9.42884 11.9586 9.73141 11.5137 10.1123 11.1411C10.4931 10.7684 10.9446 10.4757 11.4401 10.2799C11.9357 10.0842 12.4654 9.98943 12.998 10.0012C14.0432 10.0243 15.0377 10.4557 15.7688 11.2029C16.4998 11.9501 16.9093 12.9538 16.9096 13.9992C16.9099 15.0446 16.5009 16.0485 15.7702 16.7961C15.0395 17.5437 14.0451 17.9756 13 17.9992Z" fill="#29974E"/>
</svg>
