<svg xmlns="http://www.w3.org/2000/svg" width="48" height="48" fill="none" viewBox="0 0 48 48">
  <path stroke="#323232" stroke-linecap="round" stroke-linejoin="round" stroke-width="5" d="M31.111 40v-3.5556c0-1.8859-.7492-3.6947-2.0828-5.0283-1.3336-1.3336-3.1423-2.0828-5.0283-2.0828H11.5554c-1.88594 0-3.69468.7492-5.02827 2.0828-1.33359 1.3336-2.08279 3.1424-2.08279 5.0283V40M32.8888 22.2222l3.5555 3.5556 7.1111-7.1111m-18.6666-3.5556c0 3.9274-3.1838 7.1111-7.1111 7.1111-3.9274 0-7.1111-3.1837-7.1111-7.1111C10.6666 11.1838 13.8503 8 17.7777 8c3.9273 0 7.1111 3.1838 7.1111 7.1111Z"/>
</svg>
