<?xml version="1.0" standalone="no"?>
<!DOCTYPE svg PUBLIC "-//W3C//DTD SVG 20010904//EN"
 "http://www.w3.org/TR/2001/REC-SVG-20010904/DTD/svg10.dtd">
<svg version="1.0" xmlns="http://www.w3.org/2000/svg"
 width="290.000000pt" height="290.000000pt" viewBox="0 0 290.000000 290.000000"
 preserveAspectRatio="xMidYMid meet">
<metadata>
Created by potrace 1.14, written by Peter Selinger 2001-2017
</metadata>
<g transform="translate(0.000000,290.000000) scale(0.100000,-0.100000)"
fill="#000000" stroke="none">
<path d="M1306 2889 c-560 -54 -1062 -461 -1229 -995 -52 -166 -62 -236 -62
-444 0 -271 33 -416 146 -645 349 -709 1229 -1005 1934 -652 403 201 686 570
782 1017 28 134 26 440 -5 579 -140 625 -649 1078 -1281 1141 -116 11 -157 11
-285 -1z m317 -114 c570 -75 1005 -475 1143 -1050 26 -108 31 -359 9 -487 -17
-106 -51 -226 -87 -310 l-20 -48 -106 98 c-58 53 -230 211 -382 351 -151 140
-356 329 -455 420 -99 91 -205 189 -235 217 -30 29 -65 60 -76 71 -19 15 -28
52 -59 233 -20 118 -41 228 -47 243 -14 35 -36 47 -87 47 -46 0 -77 -30 -86
-84 -7 -42 -67 -380 -310 -1743 -36 -199 -65 -371 -65 -382 0 -35 -21 -34 -78
5 -107 74 -332 306 -332 343 0 8 58 11 190 11 105 0 190 3 190 8 1 4 5 26 9
50 l8 42 -223 0 c-122 0 -225 3 -227 8 -3 4 58 77 135 162 364 403 468 522
468 538 0 20 11 31 -185 -188 -231 -258 -230 -250 6 50 179 227 210 271 207
287 -2 10 -76 -77 -193 -227 -202 -258 -231 -294 -219 -270 4 8 108 164 230
345 130 193 224 344 229 365 4 19 5 33 2 30 -4 -5 -403 -597 -620 -922 -51
-76 -94 -138 -97 -138 -8 0 -76 168 -93 230 -50 176 -62 419 -31 601 44 258
163 493 347 685 187 196 389 315 645 380 173 44 317 52 495 29z m-333 -570 c0
-12 -14 -15 -64 -15 -60 0 -84 8 -69 24 3 3 35 6 70 6 49 0 63 -3 63 -15z m8
-47 c3 -16 -6 -18 -72 -18 -59 0 -76 3 -76 14 0 19 23 25 90 23 43 -2 55 -6
58 -19z m2 -163 c0 -12 -16 -15 -80 -15 -64 0 -80 3 -80 15 0 12 16 15 80 15
64 0 80 -3 80 -15z m280 -155 c313 -289 1024 -944 1047 -964 22 -19 24 -25 14
-44 -11 -21 -18 -22 -145 -22 -112 0 -136 3 -153 18 -10 9 -97 103 -193 207
-95 105 -196 215 -224 245 -58 62 -231 251 -385 418 -103 111 -103 113 -117
185 -8 39 -14 80 -14 91 0 24 -2 25 170 -134z m-275 110 c0 -12 -17 -16 -82
-18 -78 -3 -83 -2 -83 18 0 20 5 21 83 18 65 -2 82 -6 82 -18z m5 -175 c0 -12
-16 -15 -84 -15 -78 0 -105 7 -89 24 3 3 44 6 90 6 67 0 83 -3 83 -15z m913
-857 c48 -52 87 -98 87 -102 0 -3 -58 -6 -129 -6 l-129 0 -55 62 c-29 35 -126
151 -213 258 -88 107 -188 230 -224 273 l-64 78 -23 127 c-12 70 -23 133 -23
140 0 10 285 -296 773 -830z m-905 815 c-3 -15 -17 -18 -96 -21 -87 -3 -92 -2
-92 18 0 19 6 20 96 20 86 0 95 -2 92 -17z m-55 -180 c19 -22 71 -151 102
-255 45 -147 103 -458 90 -479 -4 -5 -106 -9 -237 -9 l-231 0 7 66 c23 220
122 574 186 664 24 34 59 39 83 13z m448 -375 c100 -123 207 -252 236 -288 29
-35 53 -68 53 -72 0 -5 -86 -7 -192 -6 l-192 3 -17 90 c-10 50 -32 171 -49
270 -17 99 -33 193 -36 209 -4 18 -2 26 4 22 5 -3 92 -106 193 -228z m849
-477 c0 -15 -72 -105 -144 -179 -122 -127 -281 -237 -433 -301 -108 -46 -254
-86 -262 -72 -6 8 -63 357 -74 451 -2 12 -20 16 -80 18 l-78 3 6 -48 c10 -91
35 -394 35 -430 l0 -36 -118 6 c-65 4 -156 14 -202 23 -116 22 -270 72 -277
90 -6 15 35 462 44 477 6 10 1583 9 1583 -2z"/>
</g>
</svg>
