<?xml version="1.0" standalone="no"?>
<!DOCTYPE svg PUBLIC "-//W3C//DTD SVG 20010904//EN"
 "http://www.w3.org/TR/2001/REC-SVG-20010904/DTD/svg10.dtd">
<svg version="1.0" xmlns="http://www.w3.org/2000/svg"
 width="700.000000pt" height="700.000000pt" viewBox="0 0 700.000000 700.000000"
 preserveAspectRatio="xMidYMid meet">
<metadata>
Created by potrace 1.14, written by Peter Selinger 2001-2017
</metadata>
<g transform="translate(0.000000,700.000000) scale(0.100000,-0.100000)"
fill="#000000" stroke="none">
<path d="M3278 6995 c-1 -1 -42 -5 -89 -9 -47 -4 -95 -8 -105 -10 -10 -2 -46
-7 -79 -11 -32 -4 -68 -9 -80 -11 -11 -2 -45 -8 -75 -14 -83 -15 -86 -16 -220
-50 -378 -95 -749 -262 -1079 -483 -58 -38 -110 -74 -115 -78 -6 -5 -49 -39
-96 -76 -411 -322 -743 -730 -977 -1198 -124 -250 -236 -571 -288 -830 -8 -38
-16 -79 -18 -90 -8 -38 -26 -156 -32 -211 -16 -153 -20 -234 -20 -419 0 -188
7 -344 20 -415 2 -14 6 -47 9 -75 47 -409 239 -953 466 -1318 30 -48 60 -95
65 -105 39 -68 238 -330 314 -412 281 -303 516 -496 846 -697 352 -214 856
-390 1284 -449 25 -3 57 -8 71 -10 163 -25 682 -25 842 1 13 2 46 7 73 10 72
10 86 12 120 19 17 3 44 8 60 11 460 87 948 297 1345 578 78 55 259 198 300
236 189 177 345 345 456 491 27 36 51 67 54 70 13 12 131 193 177 270 184 310
344 710 409 1025 16 75 54 300 60 350 4 33 9 76 11 95 8 70 10 547 2 610 -4
36 -11 97 -14 135 -4 39 -8 72 -10 75 -2 3 -6 30 -10 60 -3 30 -10 71 -15 90
-5 19 -12 51 -15 70 -11 66 -64 265 -95 360 -125 377 -302 716 -536 1025 -83
111 -93 122 -186 228 -190 217 -475 458 -733 622 -391 249 -875 433 -1315 500
-25 4 -54 9 -65 11 -10 2 -49 6 -85 10 -36 3 -78 8 -95 11 -33 5 -531 13 -537
8z m507 -229 c22 -3 58 -7 80 -10 35 -4 59 -7 162 -21 12 -2 34 -6 50 -9 15
-3 42 -8 58 -11 17 -2 87 -19 155 -36 1174 -293 2094 -1211 2389 -2384 33
-131 54 -245 76 -415 24 -183 25 -624 1 -745 -2 -11 -7 -49 -11 -85 -3 -36
-10 -81 -15 -100 -5 -19 -11 -53 -14 -75 -6 -49 -66 -285 -97 -380 -13 -38
-23 -72 -24 -75 -1 -3 -5 -14 -10 -25 -4 -11 -23 -59 -41 -107 -46 -116 -84
-198 -92 -198 -7 0 -37 28 -187 169 -39 36 -124 116 -189 176 -66 61 -129 119
-140 130 -12 11 -82 76 -156 145 -74 69 -164 153 -200 187 -36 34 -75 70 -87
80 -12 11 -75 69 -140 130 -65 61 -132 124 -149 139 -17 16 -82 76 -144 134
-62 58 -127 118 -144 134 -17 15 -85 78 -151 140 -65 61 -153 143 -194 181
-129 120 -234 217 -312 290 -41 39 -126 118 -189 176 -63 59 -131 122 -151
140 -20 19 -65 61 -101 94 -205 190 -310 289 -384 360 l-83 80 -31 180 c-16
99 -37 216 -44 260 -8 44 -17 96 -20 115 -3 19 -8 46 -10 60 -3 14 -23 126
-45 250 -54 303 -50 287 -83 315 -28 24 -35 25 -168 25 -134 0 -140 -1 -169
-25 -29 -25 -38 -51 -56 -162 -9 -58 -15 -95 -40 -238 -14 -77 -27 -153 -30
-170 -3 -16 -7 -40 -9 -51 -2 -12 -7 -39 -10 -60 -9 -52 -45 -261 -52 -299 -3
-16 -15 -86 -27 -155 l-22 -125 -329 -490 c-181 -269 -407 -605 -501 -745
-174 -259 -494 -736 -883 -1315 -118 -176 -220 -326 -227 -333 -9 -10 -23 12
-67 105 -159 336 -262 723 -296 1105 -9 108 -9 449 0 558 10 107 16 154 33
255 8 44 17 94 20 110 24 145 104 410 180 595 38 93 131 290 155 330 5 8 32
54 60 102 222 384 595 780 981 1041 241 163 509 297 779 389 91 31 317 94 372
103 18 3 51 10 73 15 61 13 260 39 360 46 50 4 91 7 93 9 5 4 409 -3 447 -9z
m-684 -1411 c1 -5 3 -25 5 -42 l2 -33 -160 0 -160 0 6 43 c3 23 5 42 5 43 1 0
69 0 151 0 94 0 151 -4 151 -11z m10 -126 c1 -16 2 -39 2 -51 1 -23 1 -23
-163 -23 l-165 0 0 45 c-1 25 3 48 8 51 5 4 79 7 163 7 l154 -1 1 -28z m29
-380 c0 -15 3 -34 6 -43 5 -14 -16 -16 -196 -16 l-202 0 6 23 c3 12 6 31 6 43
0 20 5 20 190 20 l190 0 0 -27z m340 -96 c30 -28 64 -60 76 -70 12 -10 77 -70
145 -134 68 -64 140 -131 159 -149 19 -18 86 -80 149 -139 63 -58 122 -114
133 -123 11 -9 76 -70 145 -135 69 -65 137 -129 152 -142 14 -13 77 -71 140
-130 63 -58 128 -119 145 -134 17 -16 82 -77 145 -135 63 -59 122 -114 131
-122 17 -15 191 -176 340 -316 41 -38 104 -97 139 -130 36 -32 79 -72 96 -89
18 -16 78 -73 135 -125 56 -52 119 -111 140 -130 53 -50 257 -240 294 -274 17
-15 82 -76 145 -135 62 -58 118 -109 124 -113 8 -5 6 -18 -6 -42 l-17 -36
-356 0 c-343 0 -357 1 -374 20 -19 22 -179 196 -227 247 -17 19 -65 71 -105
115 -40 45 -86 95 -102 112 -15 17 -47 51 -70 76 -22 25 -84 92 -136 150 -52
58 -99 110 -105 116 -5 6 -53 57 -105 114 -52 57 -99 108 -105 114 -49 54
-213 233 -225 246 -30 33 -195 213 -210 230 -8 9 -53 59 -100 110 -123 134
-175 191 -379 415 -35 38 -85 93 -110 120 -26 28 -85 93 -133 145 -92 102 -87
91 -113 250 -3 19 -12 71 -20 115 -8 44 -17 94 -20 110 -2 17 -7 44 -11 60
l-6 30 23 -20 c13 -11 49 -43 79 -72z m-332 -45 l3 -48 -205 1 -205 1 4 41 c2
23 4 45 4 50 1 4 90 6 199 5 l197 -3 3 -47z m-653 -50 c-4 -24 -9 -52 -11 -63
-2 -11 -13 -71 -24 -133 l-19 -113 -138 -177 c-76 -97 -173 -222 -216 -277
-43 -55 -84 -107 -90 -115 -7 -8 -37 -47 -67 -85 -74 -94 -67 -86 -164 -210
-47 -60 -91 -117 -98 -125 -7 -8 -25 -31 -40 -52 -15 -21 -34 -45 -43 -55 -8
-10 -93 -119 -189 -243 -299 -383 -312 -407 249 430 153 228 329 489 390 580
61 91 189 281 284 423 94 141 174 257 177 257 3 0 3 -19 -1 -42z m687 -364 l3
-44 -238 0 -239 0 3 38 c1 20 4 40 6 44 2 4 107 7 232 7 l229 0 4 -45z m10
-110 c2 -25 1 -47 -2 -49 -3 -1 -114 -3 -246 -4 l-241 -1 2 23 c1 12 3 34 4
50 l1 27 239 0 239 0 4 -46z m441 -107 c37 -41 80 -88 95 -104 62 -67 152
-165 232 -253 47 -52 112 -123 145 -159 33 -36 71 -77 85 -92 22 -24 133 -146
185 -203 11 -13 63 -69 115 -126 52 -57 100 -108 105 -114 25 -29 124 -137
174 -191 80 -87 154 -167 251 -274 47 -52 96 -106 110 -121 14 -15 63 -69 110
-120 47 -51 98 -107 114 -124 15 -16 60 -66 100 -109 39 -44 81 -90 94 -104
12 -13 22 -26 22 -29 0 -2 -145 -4 -322 -4 l-323 0 -90 112 c-49 61 -95 116
-100 122 -9 9 -155 188 -316 386 -25 30 -219 267 -431 526 l-385 471 -17 94
c-15 89 -57 324 -71 399 -9 50 -14 79 -21 130 l-6 45 39 -41 c21 -23 69 -75
106 -117z m-1239 -13 c-13 -69 -29 -133 -36 -142 -15 -19 -18 -22 -73 -83 -22
-24 -78 -87 -125 -139 -47 -52 -87 -97 -91 -100 -3 -3 -48 -52 -99 -110 -52
-58 -99 -110 -105 -116 -24 -26 -171 -188 -185 -204 -17 -19 -149 -167 -165
-184 -6 -6 -48 -54 -95 -106 -87 -96 -212 -226 -174 -180 12 14 86 108 165
210 272 349 473 605 669 855 108 138 227 289 264 338 37 48 69 87 70 87 2 0
-8 -57 -20 -126z m-49 -276 c-3 -7 -25 -132 -50 -278 -25 -146 -47 -274 -49
-285 -2 -11 -7 -40 -11 -65 -4 -25 -9 -54 -11 -65 -9 -48 -36 -203 -40 -230
-3 -16 -9 -50 -14 -75 -5 -25 -16 -88 -25 -140 -8 -52 -17 -106 -20 -120 -2
-14 -13 -79 -25 -145 -23 -133 -77 -446 -85 -485 -2 -14 -16 -92 -30 -175 -14
-82 -28 -161 -31 -175 -11 -63 -27 -157 -29 -175 -2 -11 -10 -58 -19 -105 -8
-47 -18 -101 -21 -120 -3 -19 -12 -71 -20 -115 -19 -107 -22 -124 -41 -235 -9
-52 -18 -97 -20 -99 -6 -7 -159 93 -274 180 -181 137 -312 257 -466 427 -89
98 -258 315 -297 381 l-18 31 494 0 495 0 7 53 c4 28 9 61 11 72 3 11 7 39 11
63 l6 42 -547 0 -548 0 64 72 c35 39 74 83 88 97 14 14 63 69 110 121 100 111
146 162 180 200 14 15 57 62 95 105 39 43 75 83 80 89 6 6 50 56 100 111 49
55 106 118 126 140 63 69 89 98 153 169 33 38 66 74 71 80 6 6 53 58 105 116
51 58 96 107 99 110 4 3 44 48 91 100 47 52 101 113 122 135 20 22 45 49 55
61 62 72 127 144 130 144 1 0 0 -6 -2 -12z m643 -16 c111 -111 298 -565 407
-987 41 -161 83 -396 101 -570 2 -27 6 -61 9 -75 2 -14 7 -54 10 -90 4 -36 9
-73 11 -82 3 -17 -30 -18 -577 -18 l-579 0 4 23 c3 12 12 83 21 157 22 186 24
203 41 305 8 50 17 108 20 130 32 218 219 787 334 1015 94 186 150 240 198
192z m952 -732 c133 -162 252 -306 264 -320 11 -14 57 -70 101 -125 44 -55 82
-102 85 -105 3 -3 46 -54 95 -115 50 -60 98 -119 107 -130 9 -11 66 -81 127
-155 l111 -135 -467 -3 c-349 -2 -469 1 -474 10 -4 6 -10 30 -13 53 -8 51 -12
72 -26 155 -7 36 -14 76 -16 90 -3 14 -9 48 -14 75 -5 28 -12 66 -15 85 -3 19
-8 42 -10 50 -2 8 -6 33 -10 55 -3 22 -17 105 -31 185 -14 80 -37 208 -50 285
-13 77 -26 147 -29 155 -2 8 -7 35 -10 60 -4 25 -13 79 -21 120 -8 41 -14 77
-14 80 1 6 13 -8 310 -370z m2293 -1319 c17 -1 17 -2 0 -28 -36 -59 -186 -256
-249 -330 -160 -187 -423 -423 -629 -564 -317 -217 -699 -391 -1045 -475 -8
-2 -40 -9 -72 -17 l-56 -14 -18 96 c-9 53 -18 103 -19 111 -1 8 -5 29 -8 45
-4 17 -9 46 -12 65 -3 19 -13 73 -21 120 -9 47 -17 94 -19 105 -1 11 -14 85
-29 165 -35 192 -33 181 -51 290 -18 108 -25 149 -30 170 -2 8 -4 18 -4 21 -1
8 -391 5 -392 -4 -1 -8 11 -154 17 -200 2 -16 6 -63 9 -105 4 -43 8 -88 10
-102 2 -14 6 -59 10 -100 3 -41 8 -91 11 -110 2 -19 6 -64 9 -100 6 -75 13
-155 20 -238 3 -31 7 -79 10 -107 2 -27 7 -80 10 -116 6 -60 5 -67 -12 -71
-27 -7 -362 -2 -453 7 -315 30 -613 97 -870 197 -127 49 -128 50 -125 72 2 12
6 57 10 101 3 44 8 98 10 120 2 22 7 65 10 95 3 30 8 80 10 110 3 30 8 78 10
105 3 28 8 73 10 100 3 28 9 93 15 145 5 52 12 122 16 155 3 33 7 74 10 90 2
17 6 64 10 105 3 41 12 80 19 85 8 7 666 9 1936 8 1058 0 1932 -2 1942 -2z"/>
</g>
</svg>
